<?xml version="1.0" encoding="utf-8"?>
<!-- Generator: Adobe Illustrator 23.0.2, SVG Export Plug-In . SVG Version: 6.00 Build 0)  -->
<svg version="1.1" id="圖層_1" xmlns="http://www.w3.org/2000/svg" xmlns:xlink="http://www.w3.org/1999/xlink" x="0px" y="0px"
	 viewBox="0 0 210.86 68.14" style="enable-background:new 0 0 210.86 68.14;" xml:space="preserve">
<style type="text/css">
	.st0{fill:#FFFFFF;}
	.st1{fill-rule:evenodd;clip-rule:evenodd;fill:#FFFFFF;}
</style>
<g>
	<path class="st0" d="M92.78,15.92c-1.14-0.86-2.6-1.44-4.11-1.44c-1.13,0-2.64,0.61-2.64,1.82c0,1.27,1.66,1.76,2.73,2.07
		l1.57,0.43c3.33,0.89,5.9,2.42,5.9,5.94c0,2.16-0.57,4.38-2.47,5.85c-1.87,1.44-4.37,2.05-6.76,2.05c-3,0-5.95-0.92-8.39-2.48
		l2.66-4.55c1.55,1.24,3.39,2.25,5.51,2.25c1.44,0,2.98-0.66,2.98-2.19c0-1.59-2.42-2.13-3.74-2.48c-3.9-1.01-6.46-1.93-6.46-6.14
		c0-4.41,3.45-7.3,8.22-7.3c2.39,0,5.34,0.69,7.46,1.79L92.78,15.92z"/>
	<path class="st0" d="M105.41,14.87h1.05c2.41,0,4.47,0.03,4.47,2.79c0,2.67-2.22,2.67-4.47,2.67h-1.05V14.87z M99.2,32.06h6.22
		v-7.18h3.52c5.42,0,8.46-2.25,8.46-7.4c0-5-3.55-7.16-8.68-7.16H99.2V32.06z"/>
	<path class="st0" d="M137.23,17.6c-1.27-1.56-3.33-2.4-5.45-2.4c-3.8,0-6.37,2.66-6.37,6.05c0,3.44,2.6,5.93,6.47,5.93
		c2.03,0,4.06-0.9,5.36-2.31v6.77c-2.06,0.58-3.55,1.01-5.48,1.01c-3.33,0-6.5-1.15-8.97-3.19c-2.63-2.16-3.84-4.99-3.84-8.23
		c0-2.98,1.24-5.84,3.52-7.97c2.35-2.18,5.74-3.51,9.1-3.51c2,0,3.84,0.4,5.67,1.09V17.6z"/>
	<path class="st0" d="M154.06,23.97h-5.16l2.56-6.93h0.06L154.06,23.97z M155.74,28.28l1.55,3.78h6.62l-8.99-21.74h-6.78
		l-9.18,21.74h6.59l1.65-3.78H155.74z"/>
	<path class="st0" d="M88.06,54.03c-1.34-0.68-2.3-1.35-2.87-2h5.52C90.02,52.7,89.14,53.36,88.06,54.03z M79.15,38.9l0.43,1.52
		c4.33-0.13,9.68-0.5,16.07-1.09l-1.73-1.96C90.92,38.27,86,38.78,79.15,38.9z M95.05,44.78v1.81h1.85
		c-0.04-0.54-0.07-0.9-0.07-1.07v-1.3c0-0.2,0.02-0.53,0.04-0.99c-0.49,0.07-1.07,0.11-1.77,0.11h-2.96
		c0.54-0.58,1.28-1.44,2.2-2.58l-2.17-0.85c-0.37,1.13-0.94,2.28-1.72,3.43h-2.85l1.57-0.68c-0.32-0.83-0.79-1.66-1.4-2.48
		L85.9,40.9c0.4,0.62,0.8,1.44,1.21,2.44h-4.08l1.45-0.84c-0.49-0.7-1.07-1.36-1.74-1.99l-1.74,0.86c0.51,0.54,1.04,1.19,1.61,1.96
		h-2.4c-0.46,0-1.05-0.03-1.77-0.09c0.03,0.74,0.04,1.2,0.04,1.4v1.3c0,0.26-0.02,0.55-0.07,0.88h1.77v-2.05h7.02l-1.04,0.97
		c0.85,0.49,1.78,1.13,2.78,1.9l1.14-1.23c-0.65-0.5-1.48-1.05-2.5-1.64H95.05z M91.75,46.32c1.35,0.78,2.49,1.74,3.41,2.87
		l1.2-1.28c-0.77-0.85-1.98-1.77-3.62-2.78L91.75,46.32z M84.6,49.12c-1.83,2.1-3.89,3.58-6.17,4.46C79.1,54,79.61,54.48,79.94,55
		c1.63-1.04,2.85-1.89,3.64-2.56c0.83,1.07,1.65,1.85,2.46,2.33c-2.91,0.96-5.65,1.36-8.2,1.23c0.57,0.68,0.93,1.32,1.08,1.92
		c2.77-0.15,5.74-0.86,8.91-2.15c1.19,0.5,2.77,0.89,4.75,1.17l3.66,0.53c0.04-0.63,0.43-1.39,1.17-2.29c-2.27,0.16-4.75,0-7.44-0.5
		c1.54-0.97,3-2.4,4.39-4.27c-0.99,0.03-1.67,0.04-2.02,0.04h-6.71c0.4-0.38,0.68-0.71,0.84-0.97c1.41,0.06,2.53,0.07,3.34,0.03
		c0.82-0.04,1.43-0.18,1.84-0.44c0.41-0.26,0.77-0.85,1.1-1.79c-0.75-0.21-1.37-0.54-1.85-0.99c-0.17,0.83-0.33,1.33-0.5,1.51
		c-0.16,0.17-0.54,0.26-1.13,0.26l-1.72-0.01c-0.59,0-1.07-0.04-1.45-0.12c-0.38-0.08-0.56-0.25-0.56-0.5v-1.05l0.04-1.24h-1.88
		l0.04,1.24v1.49C83.76,48.54,84.04,48.95,84.6,49.12z M79.99,48.4l1.36,0.91c0.6-0.77,1.25-1.8,1.96-3.1l-1.56-0.79
		C81.4,46.41,80.81,47.4,79.99,48.4z"/>
	<path class="st0" d="M112.97,44.24v0.81h-3.51v-0.81H112.97z M106.48,39.09v1.47c0.71-0.04,1.17-0.07,1.4-0.07h1.4
		c0,0.25-0.02,0.55-0.07,0.91h1.85c-0.05-0.35-0.08-0.65-0.08-0.91h3.15c0,0.24-0.02,0.63-0.07,1.17h1.85
		c-0.04-0.54-0.07-0.93-0.07-1.17h1.9c0.27,0,0.74,0.02,1.42,0.07v-1.47c-0.74,0.04-1.23,0.07-1.47,0.07h-1.85v-0.52l0.07-1.25
		h-1.85l0.07,1.22v0.54H111v-0.43l0.08-1.2h-1.85l0.07,1.2v0.43h-1.45C107.58,39.16,107.12,39.13,106.48,39.09z M101.37,38.38
		c0.69,0.86,1.17,1.73,1.45,2.61l1.7-0.77c-0.26-0.71-0.71-1.44-1.35-2.2l-0.27-0.31L101.37,38.38z M101.5,41.08
		c-0.21,0-0.79-0.02-1.75-0.07v1.53c0.94-0.04,1.51-0.07,1.71-0.07h3.35c0.29,0,0.82,0.02,1.61,0.07v-1.53
		c-0.82,0.04-1.35,0.07-1.61,0.07H101.5z M110.32,41.85c-0.55-0.15-1.22-0.35-2.01-0.6c-0.38,1.86-1.24,3.54-2.58,5.04
		c0.58,0.35,1,0.76,1.25,1.23c0.38-0.5,0.7-1.06,0.95-1.68v3.98c0,0.24-0.03,0.63-0.09,1.19h1.62v-0.63h8.54
		c0.23,0,0.74,0.02,1.55,0.07v-1.4c-0.8,0.04-1.33,0.07-1.57,0.07h-3.3v-0.84h2.72c0.23,0,0.73,0.02,1.51,0.07V47
		c-0.79,0.04-1.3,0.07-1.53,0.07h-2.69v-0.86h2.78c0.23,0,0.68,0.03,1.36,0.09v-1.31c-0.71,0.04-1.17,0.07-1.4,0.07h-2.74v-0.81
		h3.04c0.14,0,0.6,0.01,1.38,0.04v-1.38c-0.76,0.04-1.24,0.07-1.45,0.07h-3.4c-0.09-0.31-0.31-0.76-0.65-1.36l-1.47,0.59
		c0.22,0.29,0.42,0.55,0.61,0.77h-3.09C109.82,42.64,110.04,42.27,110.32,41.85z M112.97,46.21v0.86h-3.51v-0.86H112.97z
		 M112.97,48.28v0.84h-3.51v-0.84H112.97z M104.63,45.28c0.28,0,0.81,0.02,1.6,0.07v-1.49c-0.82,0.04-1.35,0.07-1.6,0.07h-2.48
		c-0.21,0-0.8-0.02-1.77-0.07v1.49c0.95-0.04,1.52-0.07,1.72-0.07H104.63z M104.54,48.17c0.28,0,0.81,0.02,1.6,0.07v-1.42
		c-0.82,0.04-1.35,0.07-1.6,0.07h-2.4c-0.21,0-0.8-0.02-1.77-0.07v1.42c0.95-0.04,1.52-0.07,1.72-0.07H104.54z M102.37,55.25h2.61
		v1.77h1.6c-0.04-0.64-0.07-1.09-0.07-1.36v-4.59c0-0.47,0.02-0.85,0.04-1.15c-0.38,0.03-0.81,0.04-1.29,0.04h-3.13
		c-0.63,0-1.08-0.01-1.34-0.02l0.04,1.15v5.18l-0.07,0.97h1.6V55.25z M104.97,51.3v2.66h-2.61V51.3H104.97z M108.02,51.21v1.49
		c0.76-0.06,1.27-0.09,1.53-0.09h5.73c-0.46,0.6-1.17,1.18-2.13,1.73c-0.86-0.35-1.64-0.89-2.35-1.62l-1.7,0.39
		c1.07,1.15,1.84,1.84,2.29,2.08c-1.57,0.72-3.14,1.07-4.7,1.06c0.43,0.46,0.71,1.03,0.84,1.72c1.55-0.27,3.41-0.9,5.59-1.9
		c2.87,0.99,4.85,1.57,5.95,1.74c0.14-0.73,0.46-1.39,0.95-1.98c-1.57,0-3.23-0.23-4.96-0.69c1.46-0.96,2.59-2.25,3.37-3.89
		l-1.62,0.04h-7.19C109.3,51.3,108.77,51.27,108.02,51.21z"/>
	<path class="st0" d="M128.12,45.42v1.31h-2.15v-1.31H128.12z M134.29,43.97l1.31-0.04h0.5v1.94c0,1.68-0.1,3.18-0.31,4.48
		c-0.21,1.3-0.67,2.52-1.38,3.65c-0.71,1.13-1.78,1.99-3.2,2.58c0.3,0.11,0.95,0.53,1.95,1.27c1.4-1.03,2.45-2.23,3.15-3.59
		c0.7-1.37,1.14-2.69,1.34-3.97c0.19-1.28,0.29-2.65,0.29-4.1c0.02-0.05,0.02-0.8,0-2.26h1.92v9c0,1.23-0.14,1.92-0.43,2.08
		c-0.29,0.15-1.06,0.2-2.33,0.14c0.49,0.56,0.78,1.27,0.86,2.14c1.13-0.11,1.95-0.29,2.48-0.55c0.53-0.25,0.87-0.6,1.03-1.05
		c0.16-0.45,0.24-1.09,0.24-1.95v-9.49l0.09-1.9l-2.09,0.09h-1.69v-2.22l0.09-2.66h-2.1l0.09,2.66v2.22h-0.5l-1.31-0.09V43.97z
		 M127.91,39.12c-1.87,0.24-3.39,0.32-4.56,0.23c0.25,0.41,0.47,0.93,0.67,1.59c0.81-0.15,2.17-0.3,4.1-0.45v1.21h-3.51l-1.8-0.09
		v1.63l1.8-0.1h3.51v0.91h-2.37l-1.59-0.09l0.1,1.72v3.43l-0.1,1.53l1.9-0.04h2.06v1.04h-2.87l-1.63-0.09v1.59l1.66-0.1h2.85v1.36
		l-3.28,0.14l-1.99,0.04l0.63,1.94l1.79-0.32l6.99-0.95l1.17-0.24l0.34-1.31l-1.68,0.24l-2.31,0.23v-1.14h2.61l1.62,0.1v-1.61
		l-1.64,0.11h-2.58v-1.04h2.15l1.9,0.04l-0.09-1.58v-3.55l0.09-1.56l-1.9,0.09h-2.17v-0.91h2.26l1.9,0.1v-1.61l-1.96,0.07h-2.17
		v-1.36c2.37-0.26,3.83-0.4,4.37-0.4l-1.45-1.77C131.38,38.57,129.78,38.88,127.91,39.12z M131.94,45.42v1.31h-2.15v-1.31H131.94z
		 M128.12,48.04v1.17h-2.15v-1.17H128.12z M131.94,48.04v1.17h-2.15v-1.17H131.94z"/>
	<path class="st0" d="M158.31,43.22c-0.04,0.18-0.13,0.55-0.24,1.11c-0.22,1.08-0.46,2.05-0.71,2.91c-0.25,0.87-0.64,1.81-1.16,2.82
		c-0.53,1.01-1.21,1.95-2.06,2.82c-0.38-0.38-1.14-0.7-2.31-0.97c1.03-0.57,1.85-1.31,2.46-2.21c0.61-0.9,1.05-1.79,1.32-2.68
		c0.27-0.88,0.52-1.9,0.74-3.05c0.07-0.37,0.13-0.63,0.15-0.76h-0.84c-0.47,0.91-1.06,1.93-1.77,3.07c-0.48-0.4-1.1-0.66-1.85-0.77
		c1.6-1.4,2.83-4.02,3.66-7.86l2.59,0.99c-0.41,0.35-1.06,1.34-1.94,2.98h6.38c0.18,0,0.82-0.03,1.92-0.09l-0.13,1.99
		c-0.22,3.96-0.38,6.54-0.47,7.75c-0.1,1.21-0.28,2.27-0.56,3.16c-0.28,0.9-0.71,1.57-1.29,2.01c-0.59,0.44-1.47,0.8-2.66,1.07
		c0.03-0.49-0.39-1.33-1.25-2.51c0.57,0.06,0.99,0.09,1.27,0.09c0.6,0,1.08-0.15,1.45-0.44c0.37-0.29,0.68-1.18,0.91-2.67
		c0.23-1.49,0.41-3.1,0.52-4.84c0.11-1.74,0.18-3.07,0.2-4h-1.34c-0.33,2.73-0.67,4.85-1.03,6.35c-0.35,1.5-0.97,2.89-1.84,4.18
		c-0.87,1.28-2.16,2.48-3.87,3.58c-0.43-0.65-0.99-1.14-1.7-1.49c1.5-0.84,2.68-1.81,3.55-2.91c0.87-1.1,1.52-2.4,1.98-3.9
		c0.45-1.5,0.83-3.42,1.14-5.76H158.31z M145.18,47.41c0.49-1.6,0.75-3.88,0.78-6.82c0.18,0,0.97,0.11,2.37,0.32
		c-0.14,0.6-0.3,1.22-0.47,1.85h1.4v-2.78l-0.09-1.74h2.08l-0.09,1.7v2.83h0.47l1.16-0.12v1.81l-1.2-0.04h-0.43v3.86
		c0.43-0.15,1.1-0.4,1.99-0.76l0.23,1.92c-0.85,0.29-1.59,0.56-2.22,0.78v5.65l0.04,2h-2.08l0.13-1.94V50.9
		c-0.29,0.17-1.44,0.71-3.43,1.62c-0.27-0.95-0.57-1.72-0.88-2.31c0.69-0.07,2.13-0.47,4.32-1.19v-4.61h-1.67l-0.6,3.19
		C146.52,47.47,145.91,47.41,145.18,47.41z"/>
	<path class="st0" d="M173.7,40.3l2.22,0.1h1.67c0.05-0.27,0.08-0.64,0.08-1.11c0-0.47,0-0.84,0.01-1.11h2.04
		c-0.01,0.29-0.06,0.74-0.13,1.35c-0.05,0.4-0.08,0.69-0.1,0.87h3.66l1.9-0.1l-0.22,1.25c-0.13,1.83-0.26,2.96-0.37,3.37
		c-0.12,0.41-0.44,0.75-0.96,1.03c-0.52,0.27-1.09,0.45-1.7,0.54c-0.61,0.08-1.14,0.12-1.57,0.09c-0.12-0.82-0.38-1.53-0.77-2.13
		c0.8,0.15,1.42,0.22,1.87,0.22c0.7,0,1.12-0.15,1.27-0.45c0.15-0.3,0.23-1.05,0.25-2.26h-3.57c-0.49,2.16-1.91,3.77-4.25,4.81h0.95
		c-0.1,0.24-0.21,0.74-0.32,1.51h1.49l1.72-0.09l-0.16,2.66c-0.08,1.66-0.17,2.83-0.28,3.49c-0.1,0.66-0.37,1.14-0.82,1.42
		c-0.44,0.28-0.9,0.47-1.36,0.57c-0.47,0.09-0.82,0.15-1.05,0.16c-0.13-0.77-0.42-1.45-0.86-2.04c0.58,0.05,1,0.08,1.25,0.08
		c0.31,0,0.54-0.03,0.68-0.09c0.14-0.06,0.24-0.17,0.29-0.31c0.05-0.14,0.1-0.69,0.15-1.64c0.05-0.95,0.06-1.8,0.03-2.54h-1.26
		c-0.61,3-1.64,5.25-3.08,6.76c-0.39-0.63-0.84-1.09-1.34-1.36c1.39-1.11,2.26-2.91,2.61-5.4h-0.68l-1.45,0.09v-1.83l1.45,0.09h0.77
		c0.08-0.8-0.24-1.66-0.95-2.57c2.49-0.53,4.02-1.78,4.57-3.75h-1.45l-2.22,0.09V40.3z M168.98,44.96h-0.43
		c-0.31,0.03-0.82,0.06-1.53,0.09v-1.85c0.76,0.09,1.25,0.12,1.49,0.1h0.47v-2.15l-0.11-2.69h2.14l-0.13,2.72v2.13h0.25l1.58-0.07
		v1.82l-1.56-0.09h-0.28v9.9l0.11,2.67h-2.14l0.13-2.69V44.96z M179.22,48.15l1.53,0.09c0-0.45-0.03-0.94-0.09-1.47h2.08
		c-0.11,0.52-0.17,1.01-0.18,1.47h1.62l1.85-0.09c-0.14,1-0.24,2.62-0.31,4.87c-0.05,1.54-0.12,2.49-0.2,2.87
		c-0.08,0.37-0.38,0.69-0.91,0.93c-0.53,0.25-1.03,0.4-1.52,0.46c-0.49,0.06-0.85,0.09-1.08,0.09c0.02-0.87-0.19-1.61-0.64-2.22
		c0.44,0.16,0.84,0.24,1.2,0.24c0.69,0,1.08-0.27,1.15-0.81c0.08-0.54,0.14-2.13,0.18-4.79h-1.49c-0.21,1.33-0.4,2.36-0.57,3.07
		c-0.18,0.72-0.5,1.5-0.97,2.33c-0.47,0.84-1.13,1.65-1.99,2.43c-0.44-0.5-0.95-0.87-1.53-1.1c0.21-0.1,0.52-0.34,0.95-0.72
		c0.43-0.39,0.89-1.08,1.38-2.08c0.49-1,0.81-2.31,0.97-3.94l-1.45,0.09V48.15z"/>
	<path class="st0" d="M200.76,41.84h-6.06c0.71-0.54,1.68-1.41,2.93-2.61C198.25,40.03,199.29,40.9,200.76,41.84z M205.37,44.03
		c0.21,0.07,0.49,0.19,0.84,0.34c0.23,0.11,0.39,0.18,0.47,0.2c0.18-0.68,0.54-1.38,1.08-2.1c-1.38-0.1-2.96-0.52-4.76-1.25
		c-1.8-0.73-3.14-1.6-4.03-2.62l0.33-0.41l-2.7-0.9c-0.65,1.33-1.9,2.59-3.73,3.77c-1.83,1.18-3.54,1.99-5.11,2.42
		c0.57,0.35,0.99,0.85,1.26,1.49c0.67-0.22,1.17-0.46,1.5-0.72v4.21l-0.08,1.19l1.42-0.07h11.94l1.58,0.11l-0.09-1.51v-2.59
		L205.37,44.03z M203.72,43.98h-12.19l-0.64-0.04c0.71-0.26,1.54-0.71,2.49-1.34v0.75l1.62-0.04h6.02c0.37,0,0.83,0.01,1.36,0.04
		v-0.71c0.47,0.26,1.38,0.68,2.72,1.27L203.72,43.98z M196.89,48.06h-4.7v-2.52h4.7V48.06z M193.29,46.38
		c0.24,0.23,0.56,0.77,0.98,1.61l1.62-0.68c-0.24-0.56-0.56-1.11-0.97-1.67L193.29,46.38z M201.23,48.06
		c0.27-0.46,0.69-1.04,1.25-1.74l-1.88-0.65c-0.35,0.83-0.66,1.63-0.95,2.4h-1.08v-2.52h4.97v2.52H201.23z M193.12,50.38
		c-0.28,0-0.81-0.02-1.58-0.07c0.03,0.82,0.04,1.34,0.04,1.56v4.38c0,0.38-0.04,0.92-0.11,1.61h1.82v-1.25h9.23v1.02h1.79
		c-0.04-0.76-0.07-1.3-0.07-1.62V51.7c0-0.24,0.01-0.69,0.04-1.33l-1.49,0.02H193.12z M202.52,51.83v0.93h-9.23v-0.93H202.52z
		 M202.52,54.25v0.9h-9.23v-0.9H202.52z"/>
	<path class="st1" d="M67.54,34.03c0,17.77-14.41,32.18-32.18,32.18c-0.93,0-1.85-0.05-2.76-0.13c-1.16-0.16-2.44-0.42-3.71-0.86
		c-2.85-0.99-5.2-2.54-7.04-4.87l0,0c-4.77-5.37-3.89-13.34-3.42-16.16c-0.09,0.06-0.25,0.12-0.4,0.38
		c-3.75,3.66-4.46,11.38,0.4,16.81C9.29,55.72,3.18,45.6,3.18,34.03c0-17.77,14.41-32.18,32.18-32.18
		C53.14,1.85,67.54,16.26,67.54,34.03z M48.77,51.66c-1.25,1.69-6.96,1.17-10.92,1.32c-2.72,0.1-3.53,1.43-4.33,3.27
		c-0.69,1.59-1.71,4.24-0.98,4.94c0.63,0.6,6.3,0.77,10.99-0.61c6.75-1.99,10.31-4.59,13.92-9c4.29-5.25,7.37-11.26,6.57-19.26
		c-1.24-12.5-11.24-18.04-17.88-19.35c-5.22-1.03-11.24-8.04-16.4-6.27C25,8.35,16,11.67,15.74,14.64
		c-0.64,7.46-0.04,9.24-5.9,13.08c-3.57,2.35-4.58,3.21-4.51,3.94c0.09,0.9,4.62,4.49,6.44,5.64c2.81,1.77,5.53,1.29,8.57-0.28
		c1.76-0.91,3.41-2.12,6.12-3.41c3.43-1.63,7.64-2.03,7.64-2.03c1.71-2,8.66-5.32,9.27-4.91c0.79,0.53-3.5,5.75-2.11,6.51
		c1.07,0.58,3.08,1.75,4.12,2.53c2.64,1.98,3.74,3.14,3.55,5.99c-0.13,2,1.82,2.82,2.69,4.24c0.54,0.88,0.04,1.45-0.56,2.45
		C50.48,49.36,49.63,50.5,48.77,51.66z M28.14,8.92c-0.74-0.95-0.62,5.68-0.52,7.58c0.38,7.25,4.23,9.61,7.82,9.31
		c3.32-0.29,5.7-3.36,6.8-6.41c1.38-3.84,2.92-5.61,1.95-5.73c-0.37-0.05-2.2,1.18-4.95,6.54c-2.63,5.11-9.41,2.37-10.36-4.22
		C28.29,11.84,28.7,9.63,28.14,8.92z M20.03,15.94c0,0-3-0.12-2.83,0.51c0.62,2.4,1.49,5.65,1.91,5.53
		C20.12,21.68,20.18,17.79,20.03,15.94z M45.68,43.04c0.94,0.06,1.26-1.81,1.26-1.81s-0.49-0.59-0.93-0.78
		c-0.7-0.31-1.59,0.24-1.89,0.34c-0.64,0.22-1.13,0.26-1.13,0.26s0.39,0.42,0.78,0.88C44.15,42.39,45.68,43.04,45.68,43.04z"/>
</g>
</svg>
